<svg width="94" height="64" viewBox="0 0 94 64" fill="none" xmlns="http://www.w3.org/2000/svg">
<rect x="1.19996" y="0.8" width="91.2" height="62.4" rx="8.8" fill="white"/>
<rect x="1.19996" y="0.8" width="91.2" height="62.4" rx="8.8" stroke="#F2F4F7" stroke-width="1.6"/>
<path fill-rule="evenodd" clip-rule="evenodd" d="M26.0121 22.2484C25.2245 23.1868 23.9644 23.927 22.7042 23.8212C22.5467 22.5524 23.1636 21.2043 23.8856 20.3717C24.6732 19.4068 26.0515 18.7196 27.1672 18.6667C27.2985 19.9884 26.7865 21.2836 26.0121 22.2484ZM27.154 24.0724C26.0438 24.008 25.0308 24.4085 24.2126 24.732C23.6861 24.9402 23.2402 25.1165 22.901 25.1165C22.5203 25.1165 22.0561 24.9308 21.5348 24.7223L21.5348 24.7223L21.5348 24.7223C20.8517 24.449 20.0708 24.1367 19.2518 24.1517C17.3748 24.1781 15.6289 25.2486 14.6707 26.9536C12.7017 30.3635 14.1588 35.4124 16.0621 38.1879C16.9941 39.5624 18.1098 41.0692 19.58 41.0163C20.2268 40.9917 20.692 40.7929 21.1735 40.5872L21.1736 40.5872C21.7279 40.3504 22.3038 40.1043 23.2029 40.1043C24.0709 40.1043 24.6216 40.344 25.1502 40.574C25.6528 40.7927 26.1355 41.0027 26.8521 40.9899C28.3747 40.9634 29.333 39.6153 30.265 38.2408C31.2707 36.7655 31.7127 35.3257 31.7798 35.1072L31.7876 35.0819C31.786 35.0803 31.7736 35.0746 31.7517 35.0645C31.4155 34.9095 28.8457 33.725 28.821 30.5486C28.7963 27.8825 30.8593 26.5316 31.1841 26.319L31.1841 26.319C31.2039 26.306 31.2172 26.2973 31.2232 26.2928C29.9105 24.3367 27.8628 24.1252 27.154 24.0724ZM37.6947 40.8445V20.2395H45.3736C49.3378 20.2395 52.1075 22.9886 52.1075 27.0065C52.1075 31.0244 49.2853 33.7999 45.2686 33.7999H40.8713V40.8445H37.6947ZM40.871 22.9357H44.5333C47.2898 22.9357 48.865 24.416 48.865 27.0197C48.865 29.6234 47.2898 31.1169 44.5201 31.1169H40.871V22.9357ZM62.5957 38.3729C61.7556 39.9854 59.9048 41.0031 57.9096 41.0031C54.9561 41.0031 52.8952 39.232 52.8952 36.5622C52.8952 33.9189 54.8905 32.3989 58.579 32.1743L62.5432 31.9364V30.7997C62.5432 29.1212 61.4537 28.2092 59.511 28.2092C57.9096 28.2092 56.7413 29.0419 56.505 30.3107H53.6435C53.7353 27.6409 56.2294 25.698 59.6029 25.698C63.2389 25.698 65.6017 27.6145 65.6017 30.5882V40.8445H62.6614V38.3729H62.5957ZM58.7626 38.558C57.0693 38.558 55.9929 37.7385 55.9929 36.4829C55.9929 35.1877 57.0299 34.4343 59.012 34.3154L62.543 34.0907V35.2538C62.543 37.1834 60.9153 38.558 58.7626 38.558ZM75.3545 41.6507C74.0813 45.2589 72.6242 46.4484 69.5264 46.4484C69.2901 46.4484 68.5025 46.422 68.3187 46.3691V43.8976C68.5156 43.924 69.0013 43.9504 69.2507 43.9504C70.6552 43.9504 71.4428 43.3557 71.9285 41.8093L72.2173 40.8974L66.8354 25.8963H70.1564L73.8975 38.069H73.9631L77.7042 25.8963H80.9333L75.3545 41.6507Z" fill="black"/>
</svg>
