<svg width="93" height="64" viewBox="0 0 93 64" fill="none" xmlns="http://www.w3.org/2000/svg">
<rect x="0.999951" y="0.8" width="91.2" height="62.4" rx="8.8" fill="white"/>
<rect x="0.999951" y="0.8" width="91.2" height="62.4" rx="8.8" stroke="#F2F4F7" stroke-width="1.6"/>
<path fill-rule="evenodd" clip-rule="evenodd" d="M24.8438 13.2158H46.419C61.0799 13.2158 66.7138 21.4637 66.7138 31.889C66.7138 44.3597 58.8392 50.6281 46.419 50.6281H24.8438V13.2158ZM26.8923 15.4592V48.5167H46.4188C58.1988 48.5167 64.6009 42.8421 64.6009 31.955C64.6009 20.7379 57.6866 15.4592 46.4188 15.4592H26.8923ZM32.6544 32.5487C34.8112 32.5487 36.5597 30.7467 36.5597 28.5238C36.5597 26.3009 34.8112 24.4988 32.6544 24.4988C30.4975 24.4988 28.7491 26.3009 28.7491 28.5238C28.7491 30.7467 30.4975 32.5487 32.6544 32.5487ZM29.5175 34.2643H35.7916V45.7454H29.5175V34.2643Z" fill="black"/>
<path fill-rule="evenodd" clip-rule="evenodd" d="M57.4947 24.8288H59.2873V30.3713H61.9122C61.208 20.2759 53.4614 18.0325 46.419 18.0325H38.9285V24.8288H40.0169C42.0655 24.8288 43.282 26.2144 43.282 28.5238C43.282 30.8332 42.0655 32.2188 40.0809 32.2188H38.9285V45.7453H46.419C57.8788 45.7453 61.7842 40.2688 61.9762 32.2188H57.4947V24.8288ZM48.8518 30.3713V32.2188H44.3703V24.8288H48.7238V26.6763H46.1629V27.5341H48.5957V29.3816H46.2269V30.3713H48.8518ZM49.6199 32.2188L51.7966 24.8288H54.3575L56.5342 32.2188H54.6776L54.2935 30.8332H51.9247L51.5405 32.2188H49.6199ZM52.457 28.9197H52.437V28.9857L52.457 28.9197ZM52.457 28.9197H53.7174L53.1412 26.8742H53.0772L52.457 28.9197ZM38.9285 30.3713V26.6763H40.0169C40.7211 26.6763 41.4894 26.8742 41.4894 28.5238C41.4894 30.1734 40.7851 30.3713 40.0169 30.3713H38.9285Z" fill="#D50072"/>
</svg>
