<svg width="94" height="64" viewBox="0 0 94 64" fill="none" xmlns="http://www.w3.org/2000/svg">
<rect x="1.59999" y="0.8" width="91.2" height="62.4" rx="8.8" fill="white"/>
<rect x="1.59999" y="0.8" width="91.2" height="62.4" rx="8.8" stroke="#F2F4F7" stroke-width="1.6"/>
<path fill-rule="evenodd" clip-rule="evenodd" d="M46.6106 44.8785C43.4531 47.5399 39.3574 49.1466 34.8818 49.1466C24.8955 49.1466 16.8 41.1474 16.8 31.2799C16.8 21.4124 24.8955 13.4133 34.8818 13.4133C39.3574 13.4133 43.4531 15.0199 46.6106 17.6814C49.7681 15.0199 53.8638 13.4133 58.3394 13.4133C68.3257 13.4133 76.4212 21.4124 76.4212 31.2799C76.4212 41.1474 68.3257 49.1466 58.3394 49.1466C53.8638 49.1466 49.7681 47.5399 46.6106 44.8785Z" fill="#ED0006"/>
<path fill-rule="evenodd" clip-rule="evenodd" d="M46.6106 44.8785C50.4984 41.6014 52.9637 36.7251 52.9637 31.2799C52.9637 25.8347 50.4984 20.9585 46.6106 17.6814C49.7681 15.0199 53.8638 13.4133 58.3394 13.4133C68.3257 13.4133 76.4212 21.4124 76.4212 31.2799C76.4212 41.1474 68.3257 49.1466 58.3394 49.1466C53.8638 49.1466 49.7681 47.5399 46.6106 44.8785Z" fill="#F9A000"/>
<path fill-rule="evenodd" clip-rule="evenodd" d="M46.6107 44.8785C50.4985 41.6014 52.9637 36.7251 52.9637 31.28C52.9637 25.8348 50.4985 20.9585 46.6107 17.6815C42.7229 20.9585 40.2577 25.8348 40.2577 31.28C40.2577 36.7251 42.7229 41.6014 46.6107 44.8785Z" fill="#FF5E00"/>
</svg>
