<svg width="93" height="64" viewBox="0 0 93 64" fill="none" xmlns="http://www.w3.org/2000/svg">
<rect x="0.999982" y="0.8" width="91.2" height="62.4" rx="8.8" fill="#5A31F4"/>
<rect x="0.999982" y="0.8" width="91.2" height="62.4" rx="8.8" stroke="#F2F4F7" stroke-width="1.6"/>
<path d="M51.5867 29.2634C51.5867 33.253 48.7896 36.101 44.8809 36.101H41.1985C41.1578 36.101 41.1176 36.109 41.08 36.1246C41.0425 36.1402 41.0084 36.1631 40.9797 36.1919C40.951 36.2207 40.9283 36.2549 40.9129 36.2925C40.8975 36.3301 40.8897 36.3704 40.8899 36.4111V41.6546C40.8899 41.7366 40.8574 41.8153 40.7996 41.8734C40.7417 41.9315 40.6632 41.9644 40.5812 41.9648H38.0044C37.9431 41.9645 37.8833 41.9461 37.8324 41.912C37.7815 41.8779 37.7418 41.8296 37.7183 41.773C37.7027 41.736 37.6946 41.6963 37.6943 41.6561V22.7344C37.6941 22.6938 37.7019 22.6535 37.7173 22.6158C37.7328 22.5782 37.7555 22.544 37.7841 22.5152C37.8128 22.4864 37.8469 22.4635 37.8844 22.4479C37.922 22.4323 37.9622 22.4243 38.0029 22.4243H44.8974C48.7896 22.4198 51.5867 25.2678 51.5867 29.2634ZM48.3731 29.2634C48.3731 26.9697 46.8091 25.2933 44.6877 25.2933H41.1985C41.1578 25.2933 41.1176 25.3013 41.08 25.3169C41.0425 25.3325 41.0084 25.3554 40.9797 25.3842C40.951 25.413 40.9283 25.4472 40.9129 25.4848C40.8975 25.5224 40.8897 25.5627 40.8899 25.6034V32.9054C40.8899 32.9873 40.9224 33.0658 40.9802 33.1236C41.0381 33.1815 41.1166 33.214 41.1985 33.214H44.6877C46.8091 33.229 48.3731 31.5511 48.3731 29.2634ZM52.3508 38.3347C52.324 37.7228 52.4506 37.114 52.7191 36.5635C52.9875 36.013 53.3893 35.5383 53.8879 35.1826C54.8931 34.426 56.4647 34.035 58.7719 33.9541L61.2288 33.8672V33.1421C61.2288 31.6889 60.255 31.0747 58.691 31.0747C57.1269 31.0747 56.1351 31.629 55.9074 32.5354C55.8888 32.5991 55.8496 32.6549 55.7959 32.6939C55.7422 32.733 55.6771 32.7531 55.6107 32.7511H53.1837C53.139 32.7523 53.0946 32.7437 53.0537 32.7258C53.0127 32.7079 52.9762 32.6812 52.9467 32.6476C52.9172 32.6139 52.8955 32.5742 52.8832 32.5313C52.8708 32.4883 52.868 32.4432 52.8751 32.399C53.2347 30.2507 55.022 28.6177 58.8018 28.6177C62.8229 28.6177 64.2746 30.4904 64.2746 34.065V41.6546C64.2738 41.7374 64.2402 41.8165 64.1813 41.8746C64.1223 41.9328 64.0428 41.9652 63.96 41.9648H61.5135C61.4316 41.9645 61.3531 41.9323 61.2948 41.8749C61.2661 41.8461 61.2434 41.812 61.228 41.7745C61.2126 41.7369 61.2047 41.6967 61.2049 41.6561V41.0883C61.2057 41.0414 61.1924 40.9953 61.1666 40.9561C61.1407 40.917 61.1036 40.8865 61.0602 40.8688C61.0167 40.8512 60.9689 40.8471 60.923 40.8571C60.8772 40.8671 60.8355 40.8908 60.8034 40.925C60.0693 41.7236 58.8842 42.3003 56.9861 42.3003C54.1935 42.3003 52.3508 40.8471 52.3508 38.3347ZM61.2288 36.6898V36.101L58.0467 36.2688C56.3703 36.3542 55.395 37.0508 55.395 38.2239C55.395 39.2846 56.2894 39.8718 57.852 39.8718C59.9749 39.8718 61.2288 38.7257 61.2288 36.6898ZM66.7316 47.6997V45.5004C66.732 45.4543 66.7426 45.4088 66.7626 45.3673C66.7826 45.3257 66.8115 45.289 66.8473 45.2599C66.883 45.2307 66.9247 45.2098 66.9694 45.1985C67.0142 45.1873 67.0608 45.186 67.1061 45.1948C67.4806 45.2652 67.8627 45.3012 68.2447 45.3027C68.9015 45.3346 69.55 45.1453 70.0864 44.765C70.6229 44.3848 71.0162 43.8355 71.2036 43.2052L71.3624 42.6989C71.3854 42.6308 71.3854 42.5571 71.3624 42.4891L66.2641 29.3952C66.2457 29.3478 66.2391 29.2965 66.2448 29.2459C66.2505 29.1953 66.2685 29.1469 66.2971 29.1047C66.3256 29.0626 66.364 29.028 66.4089 29.004C66.4538 28.98 66.5039 28.9672 66.5548 28.9667H69.0267C69.0899 28.9674 69.1514 28.987 69.2032 29.0231C69.2551 29.0592 69.2948 29.11 69.3174 29.169L72.7796 38.4036C72.8013 38.465 72.8415 38.5181 72.8946 38.5557C72.9477 38.5933 73.0112 38.6134 73.0763 38.6134C73.1413 38.6134 73.2048 38.5933 73.2579 38.5557C73.311 38.5181 73.3512 38.465 73.3729 38.4036L76.3797 29.1945C76.4005 29.1315 76.4407 29.0768 76.4945 29.038C76.5483 28.9993 76.613 28.9785 76.6793 28.9787H79.2367C79.2879 28.979 79.3383 28.9917 79.3836 29.0158C79.4288 29.0398 79.4676 29.0744 79.4966 29.1166C79.5256 29.1588 79.5439 29.2075 79.5501 29.2583C79.5562 29.3092 79.5499 29.3608 79.5318 29.4087L74.0785 43.9498C72.8231 47.3297 70.6702 48.1941 68.3001 48.1941C67.8507 48.2061 67.4012 48.1522 66.9668 48.0338C66.8945 48.0147 66.8313 47.9707 66.7883 47.9096C66.7453 47.8485 66.7252 47.7742 66.7316 47.6997ZM21.1352 21.3336C17.8873 21.3105 14.754 22.5329 12.3799 24.7494C12.2784 24.8424 12.2151 24.9699 12.2024 25.1069C12.1896 25.244 12.2283 25.3809 12.311 25.491L13.7807 27.4986C13.8283 27.5654 13.8901 27.621 13.9615 27.6614C14.0329 27.7018 14.1124 27.7261 14.1942 27.7325C14.276 27.739 14.3583 27.7274 14.4351 27.6986C14.512 27.6698 14.5816 27.6246 14.6391 27.566C15.4928 26.7125 16.508 26.0378 17.6254 25.5812C18.7429 25.1246 19.9401 24.8953 21.1471 24.9067C26.1869 24.9067 28.8192 28.7001 28.8192 32.4455C28.8192 36.5175 26.0536 39.3819 22.079 39.4389C19.0078 39.4389 16.6931 37.4029 16.6931 34.7137C16.6963 34.0343 16.8502 33.3641 17.1438 32.7514C17.4373 32.1387 17.8631 31.5988 18.3905 31.1705C18.502 31.0774 18.5725 30.9442 18.5868 30.7996C18.6011 30.6551 18.558 30.5106 18.4669 30.3975L16.9223 28.4469C16.8756 28.3879 16.8176 28.3389 16.7516 28.3027C16.6856 28.2665 16.6131 28.2439 16.5382 28.2362C16.4634 28.2285 16.3877 28.2359 16.3158 28.258C16.2438 28.28 16.177 28.3162 16.1193 28.3645C15.1707 29.1288 14.4052 30.0957 13.879 31.1943C13.3527 32.293 13.079 33.4955 13.0781 34.7137C13.0781 39.343 17.0122 42.9745 22.052 43.0045H22.1194C28.1031 42.9266 32.4298 38.495 32.4298 32.438C32.4298 27.0596 28.4686 21.3336 21.1366 21.3336H21.1352Z" fill="white"/>
</svg>
