<svg width="93" height="64" viewBox="0 0 93 64" fill="none" xmlns="http://www.w3.org/2000/svg">
<rect x="0.799939" y="0.8" width="91.2" height="62.4" rx="8.8" fill="#F884A1"/>
<rect x="0.799939" y="0.8" width="91.2" height="62.4" rx="8.8" stroke="#F2F4F7" stroke-width="1.6"/>
<path fill-rule="evenodd" clip-rule="evenodd" d="M52.7575 25.1616L55.2637 12.315C55.5652 10.8738 54.736 9.4215 53.3467 9.00022C51.7959 8.60112 50.2343 9.53236 49.8359 11.1066L47.5651 19.11L45.775 11.2286C45.635 10.4969 45.2042 9.84278 44.5903 9.4215C43.9765 9.00023 43.2118 8.8561 42.4903 9.01131C41.0687 9.32173 40.1425 11.029 40.4979 12.5811L41.5541 21.5087C40.6366 20.5672 39.565 20.2771 38.3232 21.0177L38.1617 21.1286C37.03 21.9219 36.7997 23.5431 37.5269 25.0197C36.925 25.0546 36.3365 25.313 35.8891 25.7848L35.7814 25.9067C34.7368 27.0153 34.9414 28.8889 36.2445 30.2303L37.3031 31.3165C37.4222 36.3369 41.3893 39.8531 46.0667 39.8531C46.1221 39.8531 46.1755 39.8453 46.2261 39.8307C52.5619 39.7655 55.3465 35.8809 55.8237 29.9864C55.9744 28.1239 55.6406 26.849 54.9406 26.0841C54.5529 25.6628 54.1436 25.4633 53.8313 25.4189L52.7575 25.1616ZM51.6234 24.8899L54.1221 12.0711C54.2944 11.2286 53.8098 10.3971 53.0344 10.1532C52.1298 9.92038 51.2036 10.4858 50.9559 11.4281L48.0589 21.6496C47.9727 21.9711 47.6497 22.1485 47.3373 22.0598C47.0893 21.9894 46.9296 21.7651 46.9175 21.5147L44.6334 11.4725C44.5473 11.0401 44.2996 10.6632 43.9442 10.4193C43.5888 10.1754 43.1472 10.0978 42.7272 10.1865C41.9734 10.3527 41.4133 11.3948 41.6395 12.3261L41.6503 12.3926L42.9556 23.47L43.7767 24.7314C44.1352 24.219 44.6522 23.8997 45.2696 23.756C45.7865 23.6451 46.3142 23.6562 46.8204 23.7449C46.9466 23.7634 47.0426 23.7898 47.0958 23.8044C47.1062 23.8072 47.1149 23.8096 47.1219 23.8114L51.6234 24.8899ZM43.2605 26.0926L41.9749 24.1176C41.9312 24.0699 41.895 24.0148 41.8687 23.9544L41.2633 23.0243C40.5202 21.9046 39.7986 21.5166 38.9371 22.0265L38.8186 22.1152C38.1509 22.5919 38.0647 23.7227 38.754 24.8092L41.2956 28.7004C41.7479 29.3878 42.6525 29.5652 43.3202 29.0996L43.4495 29.0219C43.628 28.9018 43.7759 28.7365 43.882 28.5462C43.2437 27.8734 43.0857 27.0413 43.2605 26.0926ZM45.0577 28.0311C44.9912 27.9266 44.892 27.8431 44.7698 27.7967C44.2842 27.3158 44.265 26.7153 44.4942 25.9289C44.6665 25.3524 45.0003 25.0531 45.528 24.9311C45.8727 24.8535 46.2496 24.8646 46.6158 24.9311C46.6569 24.9396 46.6933 24.9464 46.7244 24.9523C46.7748 24.9618 46.8112 24.9686 46.8312 24.9755L53.6159 26.6051L53.7451 26.6495C53.8528 26.6938 53.9713 26.7825 54.0898 26.9045C54.5421 27.4033 54.8006 28.3457 54.6713 29.8977C54.2298 35.33 51.7743 38.7002 45.9373 38.6448C45.9045 38.6448 45.8725 38.6475 45.8412 38.6527C42.3034 38.5556 39.3108 36.1778 38.6157 32.6631L39.4861 33.5562C40.5307 34.5872 42.1785 34.5651 43.1908 33.5008L43.3093 33.3788C44.1127 32.5158 44.2505 31.2446 43.7283 30.239C43.8055 30.1962 43.8814 30.149 43.9556 30.0973L44.0849 30.0086C44.3776 29.8035 44.6234 29.539 44.8121 29.2345C45.2052 29.4455 45.678 29.6304 46.2388 29.7869L47.865 30.1749C46.6588 30.8733 45.905 32.1704 45.8188 34.1548C45.7973 34.4874 46.045 34.7646 46.3681 34.7868C46.6911 34.7978 46.9604 34.554 46.9819 34.2214C47.0681 32.4254 47.7466 31.4609 48.8343 31.0396C49.4158 30.8179 50.0512 30.7736 50.6112 30.829L50.7512 30.8512C51.4943 30.9953 51.7313 29.8534 50.9882 29.676L46.5188 28.645C45.8738 28.4636 45.3971 28.2621 45.0577 28.0311ZM36.7291 26.6273C37.1761 26.1458 37.9041 26.0877 38.4287 26.4632L40.3263 29.3767C40.8468 30.1593 41.6897 30.5742 42.5419 30.5587C43.0067 31.1394 42.9818 31.9983 42.4585 32.5474L42.3508 32.6693C41.7908 33.2569 40.8754 33.268 40.3046 32.6915L37.0737 29.3989C36.1799 28.4787 36.0614 27.3479 36.6214 26.7493L36.7291 26.6273ZM32.4214 51.1057C32.4214 52.9571 31.0213 54.2209 29.1905 54.2209C27.9089 54.2209 26.8105 53.6222 26.132 52.6688L27.392 51.3717C27.7689 51.8706 28.3936 52.4138 29.2121 52.4138C29.9767 52.4138 30.5044 51.9482 30.5044 51.1944C30.5044 50.3962 29.8798 50.1966 28.8997 49.9084C27.1012 49.3651 26.3689 48.4006 26.3689 47.1479C26.3689 45.5737 27.532 44.2211 29.3628 44.2211C30.5152 44.2211 31.5813 44.7754 32.0552 45.8508L30.5367 46.8375C30.2459 46.3497 29.8475 46.0282 29.309 46.0282C28.6736 46.0282 28.2751 46.4716 28.2751 47.037C28.2751 47.7133 28.8567 47.9239 29.7828 48.2011C31.2367 48.6445 32.4214 49.3873 32.4214 51.1057ZM33.0779 50.6844C33.0779 52.6245 34.6503 54.2209 36.5888 54.2209C38.5273 54.2209 40.0996 52.6245 40.0996 50.6844C40.0996 48.7443 38.5273 47.1479 36.5888 47.1479C34.6503 47.1479 33.0779 48.7443 33.0779 50.6844ZM36.5883 52.4471C37.5253 52.4471 38.2684 51.6822 38.2684 50.6844C38.2684 49.6867 37.5253 48.9217 36.5883 48.9217C35.6406 48.9217 34.9083 49.6867 34.9083 50.6844C34.9083 51.6933 35.6514 52.4471 36.5883 52.4471ZM44.6335 44.3431V46.1169C43.6104 46.0726 42.8673 46.6047 42.8673 47.7799V48.5005C43.2766 48.057 43.8581 47.8353 44.5797 47.8353V49.6313C43.5673 49.6534 42.8673 50.3186 42.8673 51.2498V54.0436H41.0365V47.669C41.0365 45.873 42.135 44.3431 44.3643 44.3431H44.6335ZM48.629 54.2209C46.6905 54.2209 45.1181 52.6245 45.1181 50.6844C45.1181 48.7443 46.6905 47.1479 48.629 47.1479C50.5675 47.1479 52.1398 48.7443 52.1398 50.6844C52.1398 52.6245 50.5675 54.2209 48.629 54.2209ZM50.3089 50.6844C50.3089 51.6822 49.5766 52.4471 48.6289 52.4471C47.692 52.4471 46.9489 51.6933 46.9489 50.6844C46.9489 49.6867 47.692 48.9217 48.6289 48.9217C49.5658 48.9217 50.3089 49.6867 50.3089 50.6844ZM54.9076 48.1013V47.3364H53.1306V54.0435H54.9614V50.9837C54.9614 49.8751 55.5968 49.2543 56.6953 49.2543V47.2366C55.866 47.2033 55.2737 47.4916 54.9076 48.1013ZM59.5817 48.9772V50.6179C59.5817 51.7931 60.3248 52.3141 61.3479 52.2809V54.0547H61.0786C58.8386 54.0547 57.7509 52.5248 57.7509 50.7288V45.1857H59.5817V46.2389C59.5817 47.1479 60.3032 47.8353 61.294 47.8575V49.6423C60.5617 49.6423 59.9909 49.4206 59.5817 48.9772ZM63.534 54.1544C64.2018 54.1544 64.7618 53.5891 64.7618 52.8906C64.7618 52.2033 64.2125 51.6268 63.534 51.6268C62.8556 51.6268 62.3063 52.1922 62.3063 52.8906C62.3063 53.5891 62.8556 54.1544 63.534 54.1544Z" fill="white"/>
</svg>
