<svg width="18" height="18" viewBox="0 0 18 18" fill="none" xmlns="http://www.w3.org/2000/svg">
<g clip-path="url(#clip0_36_18)">
<path d="M8.58448 1.44898C8.73819 1.0794 9.26175 1.0794 9.41546 1.44898L11.2749 5.91971C11.3397 6.07552 11.4863 6.18197 11.6545 6.19546L16.481 6.5824C16.88 6.61439 17.0418 7.11231 16.7378 7.37272L13.0605 10.5227C12.9323 10.6325 12.8764 10.8047 12.9155 10.9689L14.039 15.6788C14.1319 16.0681 13.7083 16.3758 13.3667 16.1672L9.23453 13.6433C9.09053 13.5553 8.90941 13.5553 8.76541 13.6433L4.63322 16.1672C4.29163 16.3758 3.86806 16.0681 3.96094 15.6788L5.08442 10.9689C5.12357 10.8047 5.0676 10.6325 4.93945 10.5227L1.26214 7.37272C0.958149 7.11231 1.11994 6.61439 1.51893 6.5824L6.34546 6.19546C6.51367 6.18197 6.66019 6.07552 6.72499 5.91971L8.58448 1.44898Z" fill="#FFDE2D"/>
</g>
<defs>
<clipPath id="clip0_36_18">
<rect width="18" height="18" fill="white"/>
</clipPath>
</defs>
</svg>
