<svg width="93" height="64" viewBox="0 0 93 64" fill="none" xmlns="http://www.w3.org/2000/svg">
<rect x="0.8" y="0.8" width="91.2" height="62.4" rx="8.8" fill="white"/>
<rect x="0.8" y="0.8" width="91.2" height="62.4" rx="8.8" stroke="#F2F4F7" stroke-width="1.6"/>
<path fill-rule="evenodd" clip-rule="evenodd" d="M28.6674 42.2886H23.1747L19.0559 26.113C18.8604 25.3689 18.4453 24.7111 17.8347 24.4011C16.3109 23.6219 14.6318 23.0019 12.8 22.6891V22.0664H21.6482C22.8694 22.0664 23.7853 23.0019 23.938 24.0883L26.075 35.7564L31.565 22.0664H36.905L28.6674 42.2886ZM39.958 42.2886H34.7706L39.0421 22.0664H44.2294L39.958 42.2886ZM50.9405 27.6685C51.0932 26.5794 52.0091 25.9566 53.0776 25.9566C54.7567 25.8003 56.5858 26.113 58.1123 26.8894L59.0282 22.5355C57.5017 21.9127 55.8226 21.6 54.2988 21.6C49.2641 21.6 45.6005 24.4011 45.6005 28.2886C45.6005 31.2461 48.1955 32.7989 50.0273 33.7344C52.0091 34.6672 52.7723 35.29 52.6197 36.2228C52.6197 37.622 51.0932 38.2447 49.5694 38.2447C47.7376 38.2447 45.9058 37.7783 44.2294 36.9992L43.3135 41.3559C45.1453 42.1323 47.127 42.445 48.9588 42.445C54.6041 42.5987 58.1123 39.8003 58.1123 35.6C58.1123 30.3106 50.9405 30.0005 50.9405 27.6685ZM76.2667 42.2886L72.1479 22.0664H67.7237C66.8079 22.0664 65.892 22.6891 65.5867 23.6219L57.9596 42.2886H63.2996L64.3655 39.3339H70.9267L71.5373 42.2886H76.2667ZM68.487 27.5122L70.0108 35.1336H65.7394L68.487 27.5122Z" fill="#172B85"/>
</svg>
